Patient4_TMGait_0pt7_01_left_07_EMG.mot
version=1
nRows=16
nColumns=33
inDegrees=no
endheader
time	1LAddLong	2LGlutMax	3LGlutMed	4LIliopsoas	5LSemiMemb	6LBicFemLong	7LRecFem	8LVastMed	9LVastLat	10LGasMed	11LTibAnt	12lTibPost	13LPeroneusLong	14LSol	15LExtDigLong	16LFlexDigLong	17RAddLong	18RGlutMax	19RGlutMed	20RIliopsoas	21RSemiMemb	22RBicFemLong	23RRecFem	24RVastMed	25RVastLat	26RGasMed	27RTibAnt	28RTibPost	29RPeroneusLong	30RSol	31RExtDigLong	32RFlexDigLong
9.268	0.012207	0.56381	-0.06485	-0.00061	0.057983	-0.048523	-0.036926	-0.00351	0.12177	0.019989	-0.040436	-0.006409	0.026703	0.17364	-0.03067	0.002899	0.042267	-0.30167	0.10696	0.024261	0.031433	-0.052795	-0.26321	0.12589	0.16541	0.047455	-0.06012	0.023804	-0.072174	-0.22705	-0.00061	-0.006256
9.269	0.015411	0.5632	-0.019073	-0.012207	0.039673	-0.077515	-0.0354	-0.00885	0.10864	0.045776	-0.06134	-0.027161	0.016174	-0.18082	0.002747	0.003967	0.049438	-0.3598	0.11261	-0.006561	-0.027924	-0.088043	-0.21378	0.037384	0.1709	-0.026703	-0.005035	-0.030975	-0.34897	0.45532	-0.000916	-0.007935
9.27	0.030823	0.56	-0.05661	-0.010681	0.009308	-0.081177	-0.017853	-0.005951	0.11261	0.050812	0.024414	-0.023651	0.018616	-0.50415	0.014496	-0.002441	0.019531	-0.34378	0.36728	0.023956	-0.13702	-0.070953	-0.043488	-0.003662	0.099945	-0.14145	-0.33386	-0.069733	-0.28854	0.62317	-0.000458	-0.014038
9.271	0.019836	0.56122	-0.03952	0.008392	0.01297	-0.04715	-0.009613	-0.001678	0.11856	-0.018921	0.046387	-0.001221	0.080109	-0.66086	-0.007782	0.006866	0.016785	-0.37521	0.28198	0.007935	-0.047455	-0.16541	0.24963	-0.040436	-0.002441	-0.12299	-0.54977	-0.088043	0.14297	0.58395	-0.001221	-0.009613
9.272	0.020599	0.54184	-0.0914	0.020294	-0.018005	-0.01297	-0.002899	0.000305	0.11017	-0.089111	0.023956	-0.007172	0.11581	-0.47882	0.006561	-0.008392	-0.002441	-0.4863	0.33829	0.011902	0.073242	-0.33478	0.29144	0.10895	-0.099487	-0.088806	-0.45273	-0.049286	0.271	0.60532	-0.000153	-0.005798
9.273	0.027161	0.52872	-0.15808	0.009308	-0.003204	0.005951	-0.002289	-0.00351	0.10437	-0.052643	-0.028992	-0.007629	0.12268	-0.26581	0.054474	-0.008087	-0.02594	-0.53696	0.34195	-0.000153	0.053406	-0.31586	-0.056458	0.035553	-0.14847	-0.13046	-0.23682	-0.075378	0.24643	-0.32989	0.003204	-0.012512
9.274	0.019684	0.569	-0.14633	0.003357	-0.00885	0.032654	-0.013275	0.001373	0.1088	-0.028381	-0.043793	-0.007019	0.08606	-0.159	0.026855	-0.006104	-0.053406	-0.46463	-0.11185	-0.02533	-0.049896	-0.24719	-0.34515	-0.031433	-0.14923	-0.10498	-0.018311	-0.016327	0.084839	-0.44937	-0.002747	-0.00946
9.275	0.028076	0.59815	-0.11948	-0.005798	-0.019836	0.055847	0.001373	0.000153	0.1001	-0.033112	0.048828	-0.003815	0.056915	-0.050507	0.045776	-0.010681	-0.053253	-0.42999	0.093994	-0.072327	-0.11612	-0.25345	-0.38834	0.17853	-0.015259	-0.018768	-0.013885	0.048981	0.08255	-0.383	0.005188	-0.022736
9.276	0.023804	0.60226	0.11398	-0.003052	-0.005035	0.057068	-0.033569	0.003967	0.09903	-0.022125	0.092773	-0.000153	0.070496	-0.002136	0.010681	-0.013733	-0.055847	-0.37201	0.56564	-0.064545	-0.020142	-0.32425	-0.46738	0.21042	0.42068	0.10086	-0.092163	0.14633	-0.03479	-0.039825	0.003815	-0.016022
9.277	0.016479	0.5307	0.14145	-0.006866	-0.023651	0.045929	-0.045013	-0.000458	0.10284	-0.036163	0.15335	-0.006561	0.10605	0.040588	0.043182	-0.006866	-0.028687	-0.33936	1.7787	-0.058136	0.013733	-0.34683	-0.48752	0.14969	0.61539	0.070343	-0.040283	0.1268	-0.34439	1.0168	0.006866	-0.018311
9.278	0.004883	0.47669	0.242	-0.010834	-0.028687	0.041199	-0.065155	-0.002289	0.077057	0.028229	-0.059662	-0.001678	0.062561	0.023956	0.078735	-0.010223	0.019073	-0.40802	0.58212	0.004272	-0.016022	-0.42435	-0.41016	0.038147	0.48691	0.026093	-0.17456	0.05722	-0.40161	0.7428	-0.001678	-0.015259
9.279	0.002441	0.45532	0.13596	-0.005493	0.019379	0.039368	-0.072174	0.002899	0.075989	-0.006866	-0.086975	-0.006256	0.055237	0.063324	0.058289	-0.011597	0.048218	-0.48996	0.33722	0.022736	-0.037842	-0.35797	-0.50919	-0.062866	0.29892	0.018463	-0.24551	0.01236	-0.23956	0.23209	-0.003357	-0.013428
9.28	-0.00351	0.46524	0.1294	0.004883	0.014191	0.06134	-0.044861	0.014801	0.067596	-0.032806	-0.032196	-0.006256	0.078278	0.13062	0.056458	-0.007935	0.0383	-0.46692	0.7103	-0.009155	-0.016937	-0.23544	-0.72357	-0.046997	0.13687	0.032501	-0.054932	-0.035706	0.22125	-0.64865	-0.002899	-0.001526
9.281	0.008087	0.46707	0.041962	0.016937	0.020294	0.062561	-0.060425	0.002899	0.060577	-0.018921	0.00473	-0.009003	0.063019	0.10025	0.044098	-0.004425	-0.000153	-0.48859	0.28153	-0.005951	-0.069427	-0.13779	-0.67505	0.014191	0.049591	0.030518	0.51117	-0.12573	0.016022	-0.90546	-0.005951	-0.009155
9.282	0.015106	0.38513	-0.037842	0.010071	-0.003967	0.016937	-0.067139	0.002899	0.040436	-0.021362	-0.038757	-0.008087	0.033112	0.11978	0.01709	-0.00473	0.026703	-0.46921	-0.052032	-0.009613	-0.015564	-0.12924	-0.086517	0.091095	-0.42847	0.019226	0.6282	0.030823	-0.3186	-0.634	-0.001068	-0.007782
9.283	0.002289	0.38223	-0.088043	0.017242	-0.01297	-0.029449	-0.074615	0.007629	0.049133	-0.037994	-0.04425	-0.004425	0.041809	0.093384	0.015869	-0.005798	0.037537	-0.38635	-0.10239	0.005493	0.003052	-0.078278	-0.077667	0.042267	-0.73807	0.011902	0.53909	0.003967	-0.041504	-0.66315	0.001221	-0.001221
